<svg xmlns="http://www.w3.org/2000/svg" xmlns:xlink="http://www.w3.org/1999/xlink" id="Layer_1" width="45" height="45" x="0" y="0" version="1.0" viewBox="337.5 0 45 45" style="enable-background:new 337.5 0 45 45" xml:space="preserve"><g><polygon class="link-icon" style="fill:#333" points="362.493 16.684 362.493 14.255 356.011 14.255 356.011 16.748 357.507 16.748 357.507 25.723 356.011 25.723 356.011 28.217 363.989 28.217 363.989 25.723 362.493 25.723"/><circle class="link-icon" style="fill:#333" cx="360" cy="10.202" r="2.493"/><path class="link-icon" style="fill:#333" d="M376.757874,17.937887c0-9.240391-7.517487-16.757879-16.757874-16.757879 s-16.757874,7.517489-16.757874,16.757879c0,7.451645,4.889038,13.779417,11.62738,15.951487L360,42.180008l5.130859-8.289875 C371.868835,31.717302,376.757874,25.389912,376.757874,17.937887z M360,31.53503 c-7.497314,0-13.595978-6.100718-13.595978-13.596786c0-7.496894,6.099091-13.59637,13.595978-13.59637 s13.595978,6.099477,13.595978,13.59637C373.596375,25.434313,367.496887,31.53503,360,31.53503z"/></g></svg>